<svg width="138" height="26" viewBox="0 0 138 26" fill="none" xmlns="http://www.w3.org/2000/svg">
  <path d="M13.3232 26C21.0801 26 26.7182 20.1464 26.7182 13V12.9282C26.7182 5.78177 21.1519 0 13.395 0C5.63812 0 0 5.85359 0 13V13.0718C0 20.2182 5.5663 26 13.3232 26ZM13.395 20.9006C8.94199 20.9006 5.78177 17.3094 5.78177 13V12.9282C5.78177 8.61878 8.87016 5.09945 13.3232 5.09945C17.7762 5.09945 20.9365 8.69061 20.9365 13V13.0718C20.9365 17.3812 17.8481 20.9006 13.395 20.9006Z" fill="#0968C3"/>
  <path d="M29.9722 25.5691H35.4307V14.8315C35.4307 12.2459 36.7594 10.9171 38.8423 10.9171C40.9252 10.9171 42.1462 12.2459 42.1462 14.8315V25.5691H47.6048V13.1077C47.6048 8.69061 45.1987 5.96133 41.0688 5.96133C38.3036 5.96133 36.6876 7.4337 35.4307 9.04972V6.32044H29.9722V25.5691Z" fill="#0968C3"/>
  <path d="M60.3551 26C64.1976 26 66.3523 24.5276 68.2197 22.4807L65.0236 19.2486C63.6948 20.5055 62.4379 21.2956 60.6064 21.2956C57.6258 21.2956 55.7225 18.9254 55.7225 15.9807V15.9088C55.7225 13.0718 57.6617 10.6657 60.391 10.6657C62.3302 10.6657 63.5512 11.4917 64.7722 12.7845L68.112 9.19337C66.3164 7.18232 64.054 5.96133 60.4269 5.96133C54.5374 5.96133 50.3357 10.4862 50.3357 15.9807V16.0525C50.3357 21.547 54.5733 26 60.3551 26Z" fill="#0968C3"/>
  <path d="M91.3584 25.5691H96.8888V17.884L99.7977 14.8674L107.59 25.5691H114.234L103.532 11.0967L113.803 0.430938H107.016L96.8888 11.4199V0.430938H91.3584V25.5691Z" fill="#0968C3"/>
  <path d="M116.182 25.5691H128.14C133.814 25.5691 137.549 23.2707 137.549 18.674V18.6022C137.549 15.2265 135.754 13.5387 132.845 12.4254C134.64 11.4199 136.149 9.83978 136.149 7.00276V6.93094C136.149 5.20718 135.574 3.80663 134.425 2.65746C132.989 1.22099 130.726 0.430938 127.853 0.430938H116.182V25.5691ZM130.654 7.93646C130.654 9.80387 129.11 10.5939 126.668 10.5939H121.569V5.27901H127.027C129.361 5.27901 130.654 6.21271 130.654 7.86464V7.93646ZM132.055 17.9199V17.9917C132.055 19.8591 130.582 20.721 128.14 20.721H121.569V15.1906H127.961C130.798 15.1906 132.055 16.232 132.055 17.9199Z" fill="#0968C3"/>
  <path fill-rule="evenodd" clip-rule="evenodd" d="M78.8032 23.5C82.9454 23.5 86.3032 20.1421 86.3032 16C86.3032 11.8579 82.9454 8.5 78.8032 8.5C74.6611 8.5 71.3032 11.8579 71.3032 16C71.3032 20.1421 74.6611 23.5 78.8032 23.5ZM78.8032 26C84.3261 26 88.8032 21.5228 88.8032 16C88.8032 10.4772 84.3261 6 78.8032 6C73.2804 6 68.8032 10.4772 68.8032 16C68.8032 21.5228 73.2804 26 78.8032 26Z" fill="#0968C3"/>
  <path fill-rule="evenodd" clip-rule="evenodd" d="M78.8032 19.5C80.7362 19.5 82.3032 17.933 82.3032 16C82.3032 14.067 80.7362 12.5 78.8032 12.5C76.8702 12.5 75.3032 14.067 75.3032 16C75.3032 17.933 76.8702 19.5 78.8032 19.5ZM78.8032 22C82.1169 22 84.8032 19.3137 84.8032 16C84.8032 12.6863 82.1169 10 78.8032 10C75.4895 10 72.8032 12.6863 72.8032 16C72.8032 19.3137 75.4895 22 78.8032 22Z" fill="#0968C3"/>
  <path fill-rule="evenodd" clip-rule="evenodd" d="M78.8032 18C79.9078 18 80.8032 17.1046 80.8032 16C80.8032 14.8954 79.9078 14 78.8032 14C77.6987 14 76.8032 14.8954 76.8032 16C76.8032 17.1046 77.6987 18 78.8032 18Z" fill="#0968C3"/>
</svg>
