<?xml version="1.0" encoding="utf-8"?>
<!-- Generator: Adobe Illustrator 16.0.4, SVG Export Plug-In . SVG Version: 6.00 Build 0)  -->
<!DOCTYPE svg PUBLIC "-//W3C//DTD SVG 1.1//EN" "http://www.w3.org/Graphics/SVG/1.1/DTD/svg11.dtd">
<svg version="1.1" id="Layer_1" xmlns="http://www.w3.org/2000/svg" xmlns:xlink="http://www.w3.org/1999/xlink" x="0px" y="0px"
	 width="50px" height="50px" viewBox="0 0 50 50" enable-background="new 0 0 50 50" xml:space="preserve">
<g>
	<path fill="#FFFFFF" d="M47.167,36.166c0,6.05-4.95,11-11,11H13.833c-6.05,0-11-4.95-11-11V13.832c0-6.05,4.95-11,11-11h22.334
		c6.05,0,11,4.95,11,11V36.166z"/>
	<path fill="none" stroke="#000000" stroke-width="3" stroke-miterlimit="10" d="M47.167,36.166c0,6.05-4.95,11-11,11H13.833
		c-6.05,0-11-4.95-11-11V13.832c0-6.05,4.95-11,11-11h22.334c6.05,0,11,4.95,11,11V36.166z"/>
</g>
<circle fill="#FFFFFF" stroke="#000000" stroke-width="3" stroke-miterlimit="10" cx="25" cy="25" r="13.059"/>
</svg>
