<?xml version="1.0" encoding="UTF-8" standalone="no"?>
<svg
        width="79.605865mm"
        height="86.895416mm"
        viewBox="0 0 79.605865 86.895416"
        version="1.1"
        id="svg5"
        xml:space="preserve"
        xmlns="http://www.w3.org/2000/svg">
    <g
            id="layer1"
            transform="translate(-26.75854,-46.137786)"><path
       style="fill:#c0a928;stroke-width:0.198437"
       d="m 27.125165,132.08723 c 0.201642,-0.52028 2.983527,-8.24648 6.181967,-17.16934 3.198439,-8.92285 5.83275,-16.200549 5.854024,-16.172654 0.02127,0.0279 1.268784,2.774274 2.772247,6.103064 1.503463,3.32879 2.794004,6.12005 2.86787,6.20281 0.07387,0.0828 8.119712,-6.56892 17.879661,-14.781501 C 73.657976,87.032891 80.301586,81.313626 80.099346,81.274677 79.919516,81.240047 68.769116,82.515001 55.320668,84.10791 41.87222,85.700817 30.807994,86.978366 30.733501,86.946906 30.61489,86.896816 64.523722,53.876449 70.463916,48.257493 l 2.24089,-2.11971 8.32883,0.581095 c 4.58085,0.319603 8.44098,0.603746 8.57807,0.631429 0.13709,0.02768 -7.70031,6.381363 -17.41646,14.119288 -9.716145,7.737925 -17.633434,14.101236 -17.593977,14.140693 0.03945,0.03946 11.669336,-1.269506 25.844177,-2.908804 14.17484,-1.6393 25.838184,-2.957338 25.918554,-2.928975 0.0804,0.02836 -11.908884,10.848249 -26.642754,24.044192 -14.733875,13.195939 -26.718111,24.054759 -26.631638,24.130709 0.08647,0.0759 3.237964,1.27966 7.003316,2.6749 3.765351,1.39524 6.927702,2.58349 7.027442,2.64054 0.0997,0.0571 -8.696006,2.21604 -19.546097,4.79773 -10.850092,2.58168 -19.972304,4.75667 -20.271583,4.8333 l -0.544144,0.13932 z"
       id="path203" /></g>
</svg>
